<svg viewBox="0 0 182 42" xmlns="http://www.w3.org/2000/svg" fill-rule="evenodd" clip-rule="evenodd" stroke-linejoin="round" stroke-miterlimit="2"><path d="M852.526 214.712c0-14.441-9.917-26.166-22.131-26.166H235.438c-12.215 0-22.132 11.725-22.132 26.166v122.109c0 14.442 9.917 26.166 22.132 26.166h594.957c12.214 0 22.131-11.724 22.131-26.166V214.712z" fill="url(#_Linear1)" transform="matrix(.28466 0 0 .24077 -60.72 -45.396)"/><path d="M37.665 9.762a4.818 4.818 0 00-4.816-4.816H10.374a4.818 4.818 0 00-4.817 4.816v22.476a4.818 4.818 0 004.817 4.816h22.475a4.818 4.818 0 004.816-4.816V9.762z" fill-opacity=".2"/><path d="M21.646 27.315c.023.006.046.01.067.02.022.009.04.025.059.038l.198.182a6.946 6.946 0 01.521.555c.055.066.108.133.159.201a3.068 3.068 0 01.252.393c.03.056.058.115.081.174.042.103.073.212.083.323l-.002.208a1.239 1.239 0 01-.206.581 1.178 1.178 0 01-.254.268l-.201.129a1.666 1.666 0 01-.598.172l-.203.009a1.787 1.787 0 01-.576-.093 1.43 1.43 0 01-.286-.133 1.26 1.26 0 01-.399-.387 1.183 1.183 0 01-.181-.528l-.006-.198a1.065 1.065 0 01.077-.33 2.121 2.121 0 01.182-.356c.041-.066.085-.13.131-.194a5.055 5.055 0 01.48-.565l.342-.336.084-.075c.059-.038.059-.038.126-.058h.07zm124.582 1.578h-2.188c-.063-.013-.113-.043-.095-.141l1.766-4.398-2.663-6.227-.009-.039.008-.039.022-.034.033-.023.04-.007h2.203l.04.008.033.023.022.034 1.438 3.718 1.453-3.718.022-.034.034-.024.039-.007h2.204l.039.007.033.023c.037.056.027.084.022.111l-4.402 10.703-.022.033-.033.022-.039.009zm-20.693-4.552l-1.76 4.298h2.243l4.352-10.705h-2.162l-1.599 4.097-1.786-4.097h-2.31l3.022 6.407zM21.757 11.434l.238.009.446.036.616.086.643.157.36.115.413.163.438.21.416.244.434.314.405.362.327.351.301.396.277.459.066.123.13.288.137.336.045.13.145.525.113.708.02.221.02.362-.011.42-.017.14-.115.634-.23.709-.213.512-.272.537-.486.841-.251.378-.303.449-.218.297-.427.565-.292.364-.433.522-.302.35-.47.524-.295.321-.894.925-.468.455-.295.277-.025.018-.07.026-.122-.005-.011-.004-.067-.042-.155-.144-.857-.844-.266-.272-.678-.723-.162-.175-.818-.947-.229-.281-.791-1.024-.548-.798-.148-.238-.393-.668-.115-.208-.343-.718-.054-.14-.198-.55-.068-.234-.055-.226-.047-.247-.038-.276-.014-.168-.006-.369.008-.171.069-.687.016-.089.16-.699.135-.394.211-.468.121-.226.171-.28.17-.249.119-.156.14-.166.276-.291.328-.286.245-.199.29-.194.206-.131.437-.228.651-.267.551-.16.514-.107.512-.069.21-.019.421-.022.172-.002h.001l.146.002zm130.564 11.187c.731.006 1.418.603 1.387 1.399a1.382 1.382 0 01-.94 1.231c-.607.198-1.345-.045-1.665-.614-.317-.561-.174-1.36.386-1.758.236-.168.525-.256.814-.258h.018zm10.186-4.786c1.229.006 2.457.597 3.132 1.655.799 1.252.769 3.012-.062 4.231-.769 1.13-2.22 1.731-3.639 1.534-1.2-.167-2.303-.944-2.807-2.058-.681-1.502-.346-3.445.943-4.516.67-.556 1.546-.842 2.41-.846h.023zm-60.505 4.263c.013-.161.027-.416.027-.752 0-1.061-.336-1.934-.994-2.592-.658-.659-1.518-.994-2.579-.994a3.7 3.7 0 00-2.686 1.101c-.739.739-1.115 1.612-1.115 2.646 0 1.101.376 2.001 1.128 2.713.766.699 1.692 1.048 2.807 1.048 1.464 0 2.485-.537 3.09-1.625l-1.518-.994c-.323.524-.967.859-1.599.859-.9 0-1.652-.537-1.773-1.41h5.212zm-13.566 0c.013-.161.027-.416.027-.752 0-1.061-.336-1.934-.994-2.592-.659-.659-1.518-.994-2.579-.994a3.701 3.701 0 00-2.687 1.101c-.739.739-1.115 1.612-1.115 2.646 0 1.101.376 2.001 1.129 2.713.765.699 1.692 1.048 2.807 1.048 1.464 0 2.485-.537 3.089-1.625l-1.518-.994c-.322.524-.967.859-1.598.859-.9 0-1.652-.537-1.773-1.41h5.212zm-27.227-.564c0 1.074.376 1.961 1.128 2.673.752.712 1.679 1.061 2.781 1.061 1.088 0 2.014-.363 2.78-1.075.766-.725 1.142-1.625 1.142-2.699 0-1.061-.376-1.935-1.128-2.646-.753-.712-1.679-1.075-2.767-1.075-1.088 0-2.029.363-2.794 1.088-.766.712-1.142 1.612-1.142 2.673zm55.783-7.361h-2.095v10.934h2.041v-.86h.027c.497.658 1.223.994 2.176.994 1.008 0 1.827-.376 2.485-1.128.658-.766.981-1.625.981-2.606 0-.967-.323-1.827-.954-2.579-.631-.752-1.451-1.128-2.458-1.128-.927 0-1.652.336-2.176.994h-.027v-4.621zm-8.368 10.934h2.028V14.173h-2.082v4.581h-.027c-.537-.632-1.249-.954-2.149-.954-.98 0-1.8.376-2.458 1.142-.658.752-.98 1.611-.98 2.565 0 1.007.322 1.894.953 2.633.632.738 1.451 1.101 2.458 1.101 1.008 0 1.76-.349 2.23-1.048h.027v.914zm48.78.066h-2.055c-.039-.008-.039-.008-.072-.03l-.022-.033-.008-.039v-6.984c.008-.039.008-.039.03-.072l.033-.022.039-.008h2.055l.039.008.033.022.022.033.008.039v6.984c-.008.039-.008.039-.03.072l-.033.022-.039.008zm-21.074 0h-2.084l-.039-.008-.033-.022-.022-.033-.008-.039v-5.237h-1.208l-.039-.007c-.033-.023-.033-.023-.055-.056l-.008-.039v-1.645l.008-.039c.038-.057.068-.058.094-.063h1.208c0-.364-.003-.728.046-1.091.096-.708.373-1.417.905-1.918.597-.561 1.458-.787 2.28-.79l4.768.001.039.008.034.022.022.033.007.039v10.782l-.007.039c-.022.033-.023.033-.056.055l-.039.008h-2.069l-.039-.008c-.033-.022-.034-.022-.056-.055l-.007-.039V14.789l-.769 1.535c-.016.02-.029.044-.092.056-.577 0-1.154-.002-1.731 0-.267.002-.535.093-.704.312-.198.256-.242.597-.243.908v.385h1.297l.039.007.033.023.022.033.008.039v1.645l-.008.039c-.022.033-.023.033-.055.055l-.039.008h-1.298v5.236a.135.135 0 01-.063.095l-.039.008zm-42.105-7.266a1.218 1.218 0 00-.417-.053c-.953 0-1.719.523-2.028 1.182h-.013v-1.102h-2.082v7.173h2.095v-3.036c0-1.289.591-2.135 1.948-2.135.174 0 .336.013.497.04v-2.069zm-33.15.054c0-1.075-.35-1.907-1.061-2.485-.699-.591-1.599-.886-2.7-.886h-3.909v10.517h2.176V21.4h1.652c1.155 0 2.082-.296 2.781-.873.711-.591 1.061-1.451 1.061-2.566zm16.266 4.459l-1.343-4.486h-1.935L72.72 22.38h-.013l-1.29-4.446h-2.149l2.23 7.173h2.028l1.478-4.58h.013l1.464 4.58h2.055l2.257-7.173h-2.096l-1.356 4.486zM21.404 12.41a1.893 1.893 0 00-.186.027 2.016 2.016 0 00-.726.291c-.422.268-.744.669-.981 1.104a4.61 4.61 0 00-.229.493 6.053 6.053 0 00-.254.821 7.18 7.18 0 00-.111.585 9.02 9.02 0 00-.099 1.233c-.004.185-.002.369.011.553.03.431.104.858.201 1.278.123.53.282 1.052.462 1.565.227.644.486 1.277.766 1.9.347.77.726 1.525 1.129 2.266l.031.056V12.408l-.014.002zm1.593.03c.281.058.558.135.827.234.383.14.751.322 1.09.55.459.309.862.701 1.173 1.159.183.27.335.562.454.866.174.449.275.925.316 1.405.01.126.017.252.02.378a3.76 3.76 0 01-.008.352 3.933 3.933 0 01-.148.774c-.06.206-.133.409-.215.609-.101.248-.216.49-.34.727a13.899 13.899 0 01-.932 1.52 23.745 23.745 0 01-1.344 1.738 33.133 33.133 0 01-1.544 1.7l-.069.07c.378-.705.735-1.421 1.062-2.151.182-.407.354-.817.515-1.232.177-.456.34-.917.481-1.385.106-.351.2-.705.277-1.063.066-.307.118-.617.149-.929a6.244 6.244 0 00.031-.784 10.905 10.905 0 00-.018-.478 8.14 8.14 0 00-.326-1.898 5.185 5.185 0 00-.261-.684c-.242-.522-.579-1.011-1.036-1.367a2.87 2.87 0 00-.154-.111zm93.941 9.067c0-.524.175-.967.511-1.303a1.7 1.7 0 011.249-.51c.497 0 .927.174 1.263.51.349.336.523.779.523 1.303 0 .537-.174.981-.51 1.33-.336.336-.766.51-1.263.51a1.73 1.73 0 01-1.262-.51c-.336-.349-.511-.793-.511-1.33zm-8.314 0c0 .537-.175.981-.51 1.33-.336.336-.766.51-1.263.51-.497 0-.927-.174-1.263-.51-.335-.349-.51-.793-.51-1.33 0-1.061.766-1.813 1.773-1.813s1.773.752 1.773 1.813zm-45.266 0c0-.524.175-.967.511-1.303a1.662 1.662 0 011.249-.524c.497 0 .927.175 1.262.524.336.336.511.779.511 1.303 0 1.075-.752 1.84-1.76 1.84-.497 0-.927-.174-1.262-.51-.336-.349-.511-.793-.511-1.33zm99.128-1.433c-.666.006-1.293.489-1.423 1.173-.107.564.094 1.189.549 1.525.615.455 1.604.344 2.074-.296.44-.598.361-1.546-.2-2.039a1.518 1.518 0 00-.981-.363h-.019zm-65.642.641c.04-.282.202-.565.484-.833.282-.282.644-.417 1.074-.417.954 0 1.478.618 1.531 1.25h-3.089zm-13.566 0c.04-.282.201-.565.483-.833.282-.282.645-.417 1.075-.417.954 0 1.477.618 1.531 1.25h-3.089zm-24.393-2.7c0 .913-.779 1.356-1.746 1.356h-1.558v-2.726h1.545c1.007 0 1.759.416 1.759 1.37zm97.5-3.829c.53.005 1.053.326 1.257.808.22.519.06 1.172-.397 1.535-.461.366-1.162.392-1.662.063a1.337 1.337 0 01-.601-1.187c.05-.663.691-1.208 1.376-1.219h.027z" fill="#fff"/><defs><linearGradient id="_Linear1" x1="0" y1="0" x2="1" y2=".622" gradientUnits="userSpaceOnUse" gradientTransform="matrix(639.22 174.441 -996.866 111.857 213.306 188.546)"><stop offset="0" stop-color="#4d7cfe"/><stop offset="1" stop-color="#8936c8"/></linearGradient></defs></svg>